<svg viewBox="0 0 1020 460" xmlns="http://www.w3.org/2000/svg" role="img">
<title>Automation Workflow Pipeline</title>
<desc>A dark-themed animated workflow diagram showing triggers, collect, automate, action, and output stages with animated data flow.</desc>
<defs>
<marker id="wfd-arr" viewBox="0 0 10 10" refX="8" refY="5" markerWidth="5" markerHeight="5" orient="auto-start-reverse">
  <path d="M2 1L8 5L2 9" fill="none" stroke="context-stroke" stroke-width="1.5" stroke-linecap="round" stroke-linejoin="round"/>
</marker>
<!-- Icon clip squares -->
<clipPath id="ci1"><rect x="0" y="0" width="36" height="36" rx="8"/></clipPath>
<!-- Noise texture -->
<filter id="noise"><feTurbulence type="fractalNoise" baseFrequency="0.65" numOctaves="3" stitchTiles="stitch" result="noisy"/><feColorMatrix type="saturate" values="0"/><feBlend in="SourceGraphic" in2="noisy" mode="overlay" result="blend"/><feComposite in="blend" in2="SourceGraphic" operator="in"/></filter>
<linearGradient id="wfd-shine" x1="0" y1="0" x2="1" y2="1"><stop offset="0%" stop-color="rgba(255,255,255,0.035)"/><stop offset="50%" stop-color="transparent"/></linearGradient>
<linearGradient id="wfd-ib-hi" x1="0" y1="0" x2="0" y2="1"><stop offset="0%" stop-color="rgba(255,255,255,0.04)"/><stop offset="100%" stop-color="transparent"/></linearGradient>
<filter id="wfd-shadow" x="-20%" y="-30%" width="140%" height="160%"><feDropShadow dx="0" dy="8" stdDeviation="8" flood-color="#000" flood-opacity="0.6"/></filter>
<!-- Background grid pattern -->
<pattern id="grid" width="40" height="40" patternUnits="userSpaceOnUse">
  <path d="M 40 0 L 0 0 0 40" fill="none" stroke="white" stroke-width="0.3" opacity="0.06"/>
</pattern>
<!-- Wire glow filter -->
<filter id="wireglow" x="-20%" y="-194%" width="140%" height="500%">
  <feGaussianBlur stdDeviation="2" result="blur"/>
  <feComposite in="SourceGraphic" in2="blur" operator="over"/>
</filter>
<symbol id="wfd-shell" viewBox="0 0 158 76"><rect class="card-bg" width="158" height="76" rx="14" fill="#111" stroke="#2a2a2a" stroke-width="1" filter="url(#wfd-shadow)"/><rect width="158" height="76" rx="14" fill="url(#wfd-shine)"/><line x1="12" y1="1" x2="146" y2="1" stroke="rgba(255,255,255,0.06)" stroke-width="1"/></symbol>
<symbol id="wfd-ib-user" viewBox="0 0 32 32">
  <rect width="32" height="32" rx="10" fill="#0d0d0d" stroke="#1e1e1e" stroke-width="1"/>
  <rect width="32" height="16" rx="10" fill="url(#wfd-ib-hi)"/>
  <svg x="4" y="4" width="24" height="24" viewBox="0 0 24 24" fill="none" stroke="#666" stroke-width="1.5" stroke-linecap="round" stroke-linejoin="round">
    <rect x="2" y="7" width="20" height="14" rx="2"/><path d="M16 7V5a2 2 0 0 0-2-2h-4a2 2 0 0 0-2 2v2"/>
  </svg>
</symbol>
<symbol id="wfd-ib-db" viewBox="0 0 32 32">
  <rect width="32" height="32" rx="10" fill="#0d0d0d" stroke="#1e1e1e" stroke-width="1"/>
  <rect width="32" height="16" rx="10" fill="url(#wfd-ib-hi)"/>
  <svg x="4" y="4" width="24" height="24" viewBox="0 0 24 24" fill="none" stroke="#666" stroke-width="1.5" stroke-linecap="round" stroke-linejoin="round">
    <path d="M17 21v-2a4 4 0 0 0-4-4H5a4 4 0 0 0-4 4v2"/><circle cx="9" cy="7" r="4"/><path d="M23 21v-2a4 4 0 0 0-3-3.87"/><path d="M16 3.13a4 4 0 0 1 0 7.75"/>
  </svg>
</symbol>
<symbol id="wfd-ib-clock" viewBox="0 0 32 32">
  <rect width="32" height="32" rx="10" fill="#0d0d0d" stroke="#1e1e1e" stroke-width="1"/>
  <rect width="32" height="16" rx="10" fill="url(#wfd-ib-hi)"/>
  <svg x="4" y="4" width="24" height="24" viewBox="0 0 24 24" fill="none" stroke="#666" stroke-width="1.5" stroke-linecap="round" stroke-linejoin="round">
    <circle cx="12" cy="12" r="9"/><path d="M12 7v5l3 3"/>
  </svg>
</symbol>
<symbol id="wfd-ib-dl" viewBox="0 0 32 32">
  <rect width="32" height="32" rx="10" fill="#0d0d0d" stroke="#1e1e1e" stroke-width="1"/>
  <rect width="32" height="16" rx="10" fill="url(#wfd-ib-hi)"/>
  <svg x="4" y="4" width="24" height="24" viewBox="0 0 24 24" fill="none" stroke="#666" stroke-width="1.5" stroke-linecap="round" stroke-linejoin="round">
    <path d="M14 2H6a2 2 0 0 0-2 2v16a2 2 0 0 0 2 2h12a2 2 0 0 0 2-2V8z"/><polyline points="14 2 14 8 20 8"/><circle cx="10" cy="15" r="3"/><path d="M16 21l-3.5-3.5"/>
  </svg>
</symbol>
<symbol id="wfd-ib-shield" viewBox="0 0 32 32">
  <rect width="32" height="32" rx="10" fill="#0d0d0d" stroke="#1e1e1e" stroke-width="1"/>
  <rect width="32" height="16" rx="10" fill="url(#wfd-ib-hi)"/>
  <svg x="4" y="4" width="24" height="24" viewBox="0 0 24 24" fill="none" stroke="#666" stroke-width="1.5" stroke-linecap="round" stroke-linejoin="round">
    <path d="M21 10c0 7-9 13-9 13s-9-6-9-13V5l9-3 9 3v5z"/><circle cx="12" cy="10" r="3"/>
  </svg>
</symbol>
<symbol id="wfd-ib-spark" viewBox="0 0 32 32">
  <rect width="32" height="32" rx="10" fill="#0d0d0d" stroke="#1e1e1e" stroke-width="1"/>
  <rect width="32" height="16" rx="10" fill="url(#wfd-ib-hi)"/>
  <svg x="4" y="4" width="24" height="24" viewBox="0 0 24 24" fill="none" stroke="#666" stroke-width="1.5" stroke-linecap="round" stroke-linejoin="round">
    <line x1="12" y1="1" x2="12" y2="23"/><path d="M17 5H9.5a3.5 3.5 0 0 0 0 7h5a3.5 3.5 0 0 1 0 7H6"/>
  </svg>
</symbol>
<symbol id="wfd-ib-cpu" viewBox="0 0 32 32">
  <rect width="32" height="32" rx="10" fill="#0d0d0d" stroke="#1e1e1e" stroke-width="1"/>
  <rect width="32" height="16" rx="10" fill="url(#wfd-ib-hi)"/>
  <svg x="4" y="4" width="24" height="24" viewBox="0 0 24 24" fill="none" stroke="#666" stroke-width="1.5" stroke-linecap="round" stroke-linejoin="round">
    <rect x="4" y="4" width="16" height="16" rx="2"/><path d="M9 22v2 M15 22v2 M9 0v2 M15 0v2 M22 9h2 M22 15h2 M0 9h2 M0 15h2"/>
  </svg>
</symbol>
<symbol id="wfd-ib-route" viewBox="0 0 32 32">
  <rect width="32" height="32" rx="10" fill="#0d0d0d" stroke="#1e1e1e" stroke-width="1"/>
  <rect width="32" height="16" rx="10" fill="url(#wfd-ib-hi)"/>
  <svg x="4" y="4" width="24" height="24" viewBox="0 0 24 24" fill="none" stroke="#666" stroke-width="1.5" stroke-linecap="round" stroke-linejoin="round">
    <polyline points="23 6 13.5 15.5 8.5 10.5 1 18"/><polyline points="17 6 23 6 23 12"/>
  </svg>
</symbol>
<symbol id="wfd-ib-zap" viewBox="0 0 32 32">
  <rect width="32" height="32" rx="10" fill="#0d0d0d" stroke="#1e1e1e" stroke-width="1"/>
  <rect width="32" height="16" rx="10" fill="url(#wfd-ib-hi)"/>
  <svg x="4" y="4" width="24" height="24" viewBox="0 0 24 24" fill="none" stroke="#666" stroke-width="1.5" stroke-linecap="round" stroke-linejoin="round">
    <path d="M21 15a2 2 0 0 1-2 2H7l-4 4V5a2 2 0 0 1 2-2h14a2 2 0 0 1 2 2z"/>
  </svg>
</symbol>
<symbol id="wfd-ib-plug" viewBox="0 0 32 32">
  <rect width="32" height="32" rx="10" fill="#0d0d0d" stroke="#1e1e1e" stroke-width="1"/>
  <rect width="32" height="16" rx="10" fill="url(#wfd-ib-hi)"/>
  <svg x="4" y="4" width="24" height="24" viewBox="0 0 24 24" fill="none" stroke="#666" stroke-width="1.5" stroke-linecap="round" stroke-linejoin="round">
    <path d="M10 13a5 5 0 0 0 7.54.54l3-3a5 5 0 0 0-7.07-7.07l-1.72 1.71 M14 11a5 5 0 0 0-7.54-.54l-3 3a5 5 0 0 0 7.07 7.07l1.71-1.71"/>
  </svg>
</symbol>
<symbol id="wfd-ib-check" viewBox="0 0 32 32">
  <rect width="32" height="32" rx="10" fill="#0d0d0d" stroke="#1e1e1e" stroke-width="1"/>
  <rect width="32" height="16" rx="10" fill="url(#wfd-ib-hi)"/>
  <svg x="4" y="4" width="24" height="24" viewBox="0 0 24 24" fill="none" stroke="#666" stroke-width="1.5" stroke-linecap="round" stroke-linejoin="round">
    <polyline points="22 12 18 12 15 21 9 3 6 12 2 12"/>
  </svg>
</symbol>
</defs>
<style>.node-card{cursor:default}</style>

<!-- Section labels -->
<text x="52" y="44" font-family="Inter,sans-serif" font-size="9" font-weight="600" fill="white" opacity="0.25" letter-spacing="2.5">INPUT</text>
<text x="252" y="44" font-family="Inter,sans-serif" font-size="9" font-weight="600" fill="white" opacity="0.25" letter-spacing="2.5">ANALYZE</text>
<text x="447" y="44" font-family="Inter,sans-serif" font-size="9" font-weight="600" fill="white" opacity="0.25" letter-spacing="2.5">MATCH</text>
<text x="612" y="44" font-family="Inter,sans-serif" font-size="9" font-weight="600" fill="white" opacity="0.25" letter-spacing="2.5">ENGAGE</text>
<text x="862" y="44" font-family="Inter,sans-serif" font-size="9" font-weight="600" fill="white" opacity="0.25" letter-spacing="2.5">MANAGE</text>

<!-- ====== WIRES (background) ====== -->
<!-- user → capture -->
<path d="M194,134 C200,134 214,148 245,154" fill="none" stroke="white" stroke-width="0.8" opacity="0.12" marker-end="url(#wfd-arr)"/>
<!-- user → validate -->
<path d="M194,134 C210,134 244,272 245,264" fill="none" stroke="white" stroke-width="0.8" opacity="0.08" marker-end="url(#wfd-arr)"/>
<!-- data → capture -->
<path d="M194,272 C200,272 214,148 245,154" fill="none" stroke="white" stroke-width="0.8" opacity="0.08" marker-end="url(#wfd-arr)"/>
<!-- data → validate -->
<path d="M194,272 C200,272 214,272 245,264" fill="none" stroke="white" stroke-width="0.8" opacity="0.12" marker-end="url(#wfd-arr)"/>
<!-- data → enrich -->
<path d="M194,272 C200,272 214,368 245,374" fill="none" stroke="white" stroke-width="0.8" opacity="0.08" marker-end="url(#wfd-arr)"/>
<!-- schedule → validate -->
<path d="M194,368 C205,368 225,264 245,264" fill="none" stroke="white" stroke-width="0.8" opacity="0.1" marker-end="url(#wfd-arr)"/>
<!-- schedule → enrich -->
<path d="M194,368 C205,368 225,374 245,374" fill="none" stroke="white" stroke-width="0.8" opacity="0.12" marker-end="url(#wfd-arr)"/>
<!-- capture → process -->
<path d="M403,148 C400,148 424,198 492,204" fill="none" stroke="white" stroke-width="0.8" opacity="0.12" marker-end="url(#wfd-arr)"/>
<!-- validate → process -->
<path d="M403,272 C400,272 424,198 492,204" fill="none" stroke="white" stroke-width="0.8" opacity="0.08" marker-end="url(#wfd-arr)"/>
<!-- validate → route -->
<path d="M403,272 C400,272 424,318 492,324" fill="none" stroke="white" stroke-width="0.8" opacity="0.08" marker-end="url(#wfd-arr)"/>
<!-- enrich → route -->
<path d="M403,374 C420,374 432,324 440,324" fill="none" stroke="white" stroke-width="0.8" opacity="0.12" marker-end="url(#wfd-arr)"/>
<!-- process → takeaction -->
<path d="M598,198 C578,198 606,198 800,204" fill="none" stroke="white" stroke-width="0.8" opacity="0.12" marker-end="url(#wfd-arr)"/>
<!-- process → integrate -->
<path d="M598,198 C580,198 606,318 800,324" fill="none" stroke="white" stroke-width="0.8" opacity="0.08" marker-end="url(#wfd-arr)"/>
<!-- route → takeaction -->
<path d="M598,318 C580,318 606,198 800,204" fill="none" stroke="white" stroke-width="0.8" opacity="0.08" marker-end="url(#wfd-arr)"/>
<!-- route → integrate -->
<path d="M598,318 C578,318 606,318 800,324" fill="none" stroke="white" stroke-width="0.8" opacity="0.12" marker-end="url(#wfd-arr)"/>
<!-- takeaction → result -->
<path d="M800,198 C750,198 836,272 923,256" fill="none" stroke="white" stroke-width="0.8" opacity="0.12" marker-end="url(#wfd-arr)"/>
<!-- integrate → result -->
<path d="M800,318 C750,318 836,272 923,256" fill="none" stroke="white" stroke-width="0.8" opacity="0.12" marker-end="url(#wfd-arr)"/>

<!-- ====== ANIMATED FLOW WIRES ====== -->
<!-- Main flow: user→capture (primary) -->
<path id="wire-uc" d="M194,134 C200,134 214,148 245,154" fill="none" stroke="white" stroke-width="1.5" opacity="0" stroke-dasharray="6 60">
  <animate attributeName="opacity" values="0;0.7;0.7;0" dur="2.4s" begin="0s" repeatCount="indefinite"/>
  <animate attributeName="stroke-dashoffset" from="0" to="-120" dur="2.4s" begin="0s" repeatCount="indefinite"/>
</path>
<path id="wire-cv" d="M403,148 C400,148 424,198 492,204" fill="none" stroke="white" stroke-width="1.5" opacity="0" stroke-dasharray="6 60">
  <animate attributeName="opacity" values="0;0.7;0.7;0" dur="2.4s" begin="0.6s" repeatCount="indefinite"/>
  <animate attributeName="stroke-dashoffset" from="0" to="-120" dur="2.4s" begin="0.6s" repeatCount="indefinite"/>
</path>
<path id="wire-pa" d="M598,198 C578,198 606,198 800,204" fill="none" stroke="white" stroke-width="1.5" opacity="0" stroke-dasharray="6 60">
  <animate attributeName="opacity" values="0;0.7;0.7;0" dur="2.4s" begin="1.2s" repeatCount="indefinite"/>
  <animate attributeName="stroke-dashoffset" from="0" to="-120" dur="2.4s" begin="1.2s" repeatCount="indefinite"/>
</path>
<path id="wire-ar" d="M800,198 C750,198 836,272 923,256" fill="none" stroke="white" stroke-width="1.5" opacity="0" stroke-dasharray="6 60">
  <animate attributeName="opacity" values="0;0.7;0.7;0" dur="2.4s" begin="1.8s" repeatCount="indefinite"/>
  <animate attributeName="stroke-dashoffset" from="0" to="-120" dur="2.4s" begin="1.8s" repeatCount="indefinite"/>
</path>

<!-- Secondary flow: data→validate→route→integrate→result -->
<path d="M194,272 C200,272 214,272 245,264" fill="none" stroke="white" stroke-width="1" opacity="0" stroke-dasharray="4 55">
  <animate attributeName="opacity" values="0;0.4;0.4;0" dur="3.2s" begin="0.4s" repeatCount="indefinite"/>
  <animate attributeName="stroke-dashoffset" from="0" to="-100" dur="3.2s" begin="0.4s" repeatCount="indefinite"/>
</path>
<path d="M403,272 C400,272 424,318 492,324" fill="none" stroke="white" stroke-width="1" opacity="0" stroke-dasharray="4 55">
  <animate attributeName="opacity" values="0;0.4;0.4;0" dur="3.2s" begin="1.0s" repeatCount="indefinite"/>
  <animate attributeName="stroke-dashoffset" from="0" to="-100" dur="3.2s" begin="1.0s" repeatCount="indefinite"/>
</path>
<path d="M598,318 C578,318 606,318 800,324" fill="none" stroke="white" stroke-width="1" opacity="0" stroke-dasharray="4 55">
  <animate attributeName="opacity" values="0;0.4;0.4;0" dur="3.2s" begin="1.6s" repeatCount="indefinite"/>
  <animate attributeName="stroke-dashoffset" from="0" to="-100" dur="3.2s" begin="1.6s" repeatCount="indefinite"/>
</path>
<path d="M800,318 C750,318 836,272 923,256" fill="none" stroke="white" stroke-width="1" opacity="0" stroke-dasharray="4 55">
  <animate attributeName="opacity" values="0;0.4;0.4;0" dur="3.2s" begin="2.2s" repeatCount="indefinite"/>
  <animate attributeName="stroke-dashoffset" from="0" to="-100" dur="3.2s" begin="2.2s" repeatCount="indefinite"/>
</path>
<path d="M194,134 C210,134 244,272 245,264" fill="none" stroke="white" stroke-width="1" opacity="0" stroke-dasharray="4 55" stroke-dashoffset="0">
  <animate attributeName="opacity" values="0;0.45;0.45;0" dur="2.8s" begin="0.2s" repeatCount="indefinite"/>
  <animate attributeName="stroke-dashoffset" from="0" to="-100" dur="2.8s" begin="0.2s" repeatCount="indefinite"/>
</path>
<path d="M403,272 C400,272 424,198 492,204" fill="none" stroke="white" stroke-width="1" opacity="0" stroke-dasharray="4 55" stroke-dashoffset="0">
  <animate attributeName="opacity" values="0;0.45;0.45;0" dur="2.8s" begin="1.4s" repeatCount="indefinite"/>
  <animate attributeName="stroke-dashoffset" from="0" to="-100" dur="2.8s" begin="1.4s" repeatCount="indefinite"/>
</path>
<path d="M598,198 C580,198 606,318 800,324" fill="none" stroke="white" stroke-width="1" opacity="0" stroke-dasharray="4 55" stroke-dashoffset="0">
  <animate attributeName="opacity" values="0;0.45;0.45;0" dur="2.8s" begin="2.6s" repeatCount="indefinite"/>
  <animate attributeName="stroke-dashoffset" from="0" to="-100" dur="2.8s" begin="2.6s" repeatCount="indefinite"/>
</path>
<path d="M598,318 C580,318 606,198 800,204" fill="none" stroke="white" stroke-width="1" opacity="0" stroke-dasharray="4 55" stroke-dashoffset="0">
  <animate attributeName="opacity" values="0;0.45;0.45;0" dur="2.8s" begin="3.0s" repeatCount="indefinite"/>
  <animate attributeName="stroke-dashoffset" from="0" to="-100" dur="2.8s" begin="3.0s" repeatCount="indefinite"/>
</path>
<path d="M194,368 C205,368 225,264 245,264" fill="none" stroke="white" stroke-width="1.2" opacity="0" stroke-dasharray="5 50" stroke-dashoffset="0">
  <animate attributeName="opacity" values="0;0.55;0.55;0" dur="2.6s" begin="0.5s" repeatCount="indefinite"/>
  <animate attributeName="stroke-dashoffset" from="0" to="-90" dur="2.6s" begin="0.5s" repeatCount="indefinite"/>
</path>
<path d="M194,368 C205,368 225,374 245,374" fill="none" stroke="white" stroke-width="1.2" opacity="0" stroke-dasharray="5 50" stroke-dashoffset="0">
  <animate attributeName="opacity" values="0;0.55;0.55;0" dur="2.6s" begin="1.1s" repeatCount="indefinite"/>
  <animate attributeName="stroke-dashoffset" from="0" to="-90" dur="2.6s" begin="1.1s" repeatCount="indefinite"/>
</path>
<path d="M403,374 C420,374 432,324 440,324" fill="none" stroke="white" stroke-width="1.2" opacity="0" stroke-dasharray="5 50" stroke-dashoffset="0">
  <animate attributeName="opacity" values="0;0.55;0.55;0" dur="2.6s" begin="1.7s" repeatCount="indefinite"/>
  <animate attributeName="stroke-dashoffset" from="0" to="-90" dur="2.6s" begin="1.7s" repeatCount="indefinite"/>
</path>

<!-- ====== NODE CARDS ====== -->
<g class="node-card" transform="translate(36,96)"><use href="#wfd-shell" width="158" height="76"/><use class="wfd-ico" href="#wfd-ib-user" x="8" y="22" width="32" height="32"/><text x="50" y="33" font-family="Inter,sans-serif" font-size="11" font-weight="700" fill="#e0e0e0">Job Posting</text><text x="50" y="44" font-family="Inter,sans-serif" font-size="7" font-weight="500" fill="#3d3d3d" letter-spacing="0.5">COMPANIES POST REQS</text></g>
<g class="node-card" transform="translate(36,226)"><use href="#wfd-shell" width="158" height="76"/><use class="wfd-ico" href="#wfd-ib-db" x="8" y="22" width="32" height="32"/><text x="50" y="33" font-family="Inter,sans-serif" font-size="11" font-weight="700" fill="#e0e0e0">Talent Profiles</text><text x="50" y="44" font-family="Inter,sans-serif" font-size="7" font-weight="500" fill="#3d3d3d" letter-spacing="0.5">SKILLS, CERTS, PRICE</text></g>
<g class="node-card" transform="translate(36,336)"><use href="#wfd-shell" width="158" height="76"/><use class="wfd-ico" href="#wfd-ib-clock" x="8" y="22" width="32" height="32"/><text x="50" y="33" font-family="Inter,sans-serif" font-size="11" font-weight="700" fill="#e0e0e0">Live Availability</text><text x="50" y="44" font-family="Inter,sans-serif" font-size="7" font-weight="500" fill="#3d3d3d" letter-spacing="0.5">REAL-TIME SYNC</text></g>
<g class="node-card" transform="translate(245,116)"><use href="#wfd-shell" width="158" height="76"/><use class="wfd-ico" href="#wfd-ib-dl" x="8" y="22" width="32" height="32"/><text x="50" y="33" font-family="Inter,sans-serif" font-size="11" font-weight="700" fill="#e0e0e0">Skill Extraction</text><text x="50" y="44" font-family="Inter,sans-serif" font-size="7" font-weight="500" fill="#3d3d3d" letter-spacing="0.5">AI NLP ANALYSIS</text></g>
<g class="node-card" transform="translate(245,226)"><use href="#wfd-shell" width="158" height="76"/><use class="wfd-ico" href="#wfd-ib-shield" x="8" y="22" width="32" height="32"/><text x="50" y="33" font-family="Inter,sans-serif" font-size="11" font-weight="700" fill="#e0e0e0">Proximity Check</text><text x="50" y="44" font-family="Inter,sans-serif" font-size="7" font-weight="500" fill="#3d3d3d" letter-spacing="0.5">GEO-LOCATION MATCH</text></g>
<g class="node-card" transform="translate(245,336)"><use href="#wfd-shell" width="158" height="76"/><use class="wfd-ico" href="#wfd-ib-spark" x="8" y="22" width="32" height="32"/><text x="50" y="33" font-family="Inter,sans-serif" font-size="11" font-weight="700" fill="#e0e0e0">Budget Audit</text><text x="50" y="44" font-family="Inter,sans-serif" font-size="7" font-weight="500" fill="#3d3d3d" letter-spacing="0.5">PRICING ALIGNMENT</text></g>
<g class="node-card" transform="translate(440,166)"><use href="#wfd-shell" width="158" height="76"/><use class="wfd-ico" href="#wfd-ib-cpu" x="8" y="22" width="32" height="32"/><text x="50" y="33" font-family="Inter,sans-serif" font-size="11" font-weight="700" fill="#e0e0e0">AI Alignment</text><text x="50" y="44" font-family="Inter,sans-serif" font-size="7" font-weight="500" fill="#3d3d3d" letter-spacing="0.5">NEURAL MATCHING</text></g>
<g class="node-card" transform="translate(440,286)"><use href="#wfd-shell" width="158" height="76"/><use class="wfd-ico" href="#wfd-ib-route" x="8" y="22" width="32" height="32"/><text x="50" y="33" font-family="Inter,sans-serif" font-size="11" font-weight="700" fill="#e0e0e0">Score Gen</text><text x="50" y="44" font-family="Inter,sans-serif" font-size="7" font-weight="500" fill="#3d3d3d" letter-spacing="0.5">COMPATIBILITY RATING</text></g>
<g class="node-card" transform="translate(642,166)"><use href="#wfd-shell" width="158" height="76"/><use class="wfd-ico" href="#wfd-ib-zap" x="8" y="22" width="32" height="32"/><text x="50" y="33" font-family="Inter,sans-serif" font-size="11" font-weight="700" fill="#e0e0e0">Smart Negot.</text><text x="50" y="44" font-family="Inter,sans-serif" font-size="7" font-weight="500" fill="#3d3d3d" letter-spacing="0.5">AUTONOMOUS OFFERS</text></g>
<g class="node-card" transform="translate(642,286)"><use href="#wfd-shell" width="158" height="76"/><use class="wfd-ico" href="#wfd-ib-plug" x="8" y="22" width="32" height="32"/><text x="50" y="33" font-family="Inter,sans-serif" font-size="11" font-weight="700" fill="#e0e0e0">Assignment</text><text x="50" y="44" font-family="Inter,sans-serif" font-size="7" font-weight="500" fill="#3d3d3d" letter-spacing="0.5">WORKFORCE LOCK</text></g>
<g class="node-card" transform="translate(844,218)"><use href="#wfd-shell" width="158" height="76"/><use class="wfd-ico" href="#wfd-ib-check" x="8" y="22" width="32" height="32"/><text x="50" y="33" font-family="Inter,sans-serif" font-size="11" font-weight="700" fill="#e0e0e0">Performance</text><text x="50" y="44" font-family="Inter,sans-serif" font-size="7" font-weight="500" fill="#3d3d3d" letter-spacing="0.5">DYNAMIC MANAGEMENT</text></g>
</svg>
